<svg id="visual" viewBox="0 0 960 540" width="960" height="540" xmlns="http://www.w3.org/2000/svg" xmlns:xlink="http://www.w3.org/1999/xlink" version="1.1"><path d="M0 433L10.7 432.2C21.3 431.3 42.7 429.7 64 429.8C85.3 430 106.7 432 128 428.7C149.3 425.3 170.7 416.7 192 411.5C213.3 406.3 234.7 404.7 256 412C277.3 419.3 298.7 435.7 320 442.7C341.3 449.7 362.7 447.3 384 445.8C405.3 444.3 426.7 443.7 448 441.7C469.3 439.7 490.7 436.3 512 433.2C533.3 430 554.7 427 576 422.8C597.3 418.7 618.7 413.3 640 413.2C661.3 413 682.7 418 704 418.3C725.3 418.7 746.7 414.3 768 414.5C789.3 414.7 810.7 419.3 832 420.5C853.3 421.7 874.7 419.3 896 422.2C917.3 425 938.7 433 949.3 437L960 441L960 541L949.3 541C938.7 541 917.3 541 896 541C874.7 541 853.3 541 832 541C810.7 541 789.3 541 768 541C746.7 541 725.3 541 704 541C682.7 541 661.3 541 640 541C618.7 541 597.3 541 576 541C554.7 541 533.3 541 512 541C490.7 541 469.3 541 448 541C426.7 541 405.3 541 384 541C362.7 541 341.3 541 320 541C298.7 541 277.3 541 256 541C234.7 541 213.3 541 192 541C170.7 541 149.3 541 128 541C106.7 541 85.3 541 64 541C42.7 541 21.3 541 10.7 541L0 541Z" fill="#dadada"></path><path d="M0 435L10.7 438.7C21.3 442.3 42.7 449.7 64 454C85.3 458.3 106.7 459.7 128 461.5C149.3 463.3 170.7 465.7 192 461.3C213.3 457 234.7 446 256 446.7C277.3 447.3 298.7 459.7 320 462.2C341.3 464.7 362.7 457.3 384 453.5C405.3 449.7 426.7 449.3 448 446.2C469.3 443 490.7 437 512 436.7C533.3 436.3 554.7 441.7 576 449.7C597.3 457.7 618.7 468.3 640 473.8C661.3 479.3 682.7 479.7 704 471.2C725.3 462.7 746.7 445.3 768 439.5C789.3 433.7 810.7 439.3 832 443.8C853.3 448.3 874.7 451.7 896 456.2C917.3 460.7 938.7 466.3 949.3 469.2L960 472L960 541L949.3 541C938.7 541 917.3 541 896 541C874.7 541 853.3 541 832 541C810.7 541 789.3 541 768 541C746.7 541 725.3 541 704 541C682.7 541 661.3 541 640 541C618.7 541 597.3 541 576 541C554.7 541 533.3 541 512 541C490.7 541 469.3 541 448 541C426.7 541 405.3 541 384 541C362.7 541 341.3 541 320 541C298.7 541 277.3 541 256 541C234.7 541 213.3 541 192 541C170.7 541 149.3 541 128 541C106.7 541 85.3 541 64 541C42.7 541 21.3 541 10.7 541L0 541Z" fill="#e6e6e6"></path><path d="M0 458L10.7 459.7C21.3 461.3 42.7 464.7 64 465C85.3 465.3 106.7 462.7 128 467.5C149.3 472.3 170.7 484.7 192 487C213.3 489.3 234.7 481.7 256 478.2C277.3 474.7 298.7 475.3 320 478.7C341.3 482 362.7 488 384 485.7C405.3 483.3 426.7 472.7 448 468.8C469.3 465 490.7 468 512 468.8C533.3 469.7 554.7 468.3 576 468C597.3 467.7 618.7 468.3 640 471.7C661.3 475 682.7 481 704 485.3C725.3 489.7 746.7 492.3 768 492.7C789.3 493 810.7 491 832 491.2C853.3 491.3 874.7 493.7 896 489.5C917.3 485.3 938.7 474.7 949.3 469.3L960 464L960 541L949.3 541C938.7 541 917.3 541 896 541C874.7 541 853.3 541 832 541C810.7 541 789.3 541 768 541C746.7 541 725.3 541 704 541C682.7 541 661.3 541 640 541C618.7 541 597.3 541 576 541C554.7 541 533.3 541 512 541C490.7 541 469.3 541 448 541C426.7 541 405.3 541 384 541C362.7 541 341.3 541 320 541C298.7 541 277.3 541 256 541C234.7 541 213.3 541 192 541C170.7 541 149.3 541 128 541C106.7 541 85.3 541 64 541C42.7 541 21.3 541 10.7 541L0 541Z" fill="#f2f2f2"></path><path d="M0 495L10.7 494.2C21.3 493.3 42.7 491.7 64 494.7C85.3 497.7 106.7 505.3 128 510.7C149.3 516 170.7 519 192 515.8C213.3 512.7 234.7 503.3 256 501.3C277.3 499.3 298.7 504.7 320 507.2C341.3 509.7 362.7 509.3 384 506C405.3 502.7 426.7 496.3 448 494C469.3 491.7 490.7 493.3 512 498.5C533.3 503.7 554.7 512.3 576 514.5C597.3 516.7 618.7 512.3 640 507.5C661.3 502.7 682.7 497.3 704 497.5C725.3 497.7 746.7 503.3 768 503.2C789.3 503 810.7 497 832 496C853.3 495 874.7 499 896 504C917.3 509 938.7 515 949.3 518L960 521L960 541L949.3 541C938.7 541 917.3 541 896 541C874.7 541 853.3 541 832 541C810.7 541 789.3 541 768 541C746.7 541 725.3 541 704 541C682.7 541 661.3 541 640 541C618.7 541 597.3 541 576 541C554.7 541 533.3 541 512 541C490.7 541 469.3 541 448 541C426.7 541 405.3 541 384 541C362.7 541 341.3 541 320 541C298.7 541 277.3 541 256 541C234.7 541 213.3 541 192 541C170.7 541 149.3 541 128 541C106.7 541 85.3 541 64 541C42.7 541 21.3 541 10.7 541L0 541Z" fill="#ffffff"></path></svg>